<svg xmlns="http://www.w3.org/2000/svg" xmlns:xlink="http://www.w3.org/1999/xlink" width="500" zoomAndPan="magnify" viewBox="0 0 375 374.999991" height="500" preserveAspectRatio="xMidYMid meet" version="1.0"><defs><g/></defs><rect x="-37.5" width="450" fill="#ffffff" y="-37.499999" height="449.999989" fill-opacity="1"/><rect x="-37.5" width="450" fill="#ffffff" y="-37.499999" height="449.999989" fill-opacity="1"/><g fill="#03cfc9" fill-opacity="1"><g transform="translate(57.457032, 207.504274)"><g><path d="M 9.8125 0 C 7.976562 0 6.550781 -0.507812 5.53125 -1.53125 C 4.507812 -2.550781 4 -3.976562 4 -5.8125 L 4 -38.328125 C 4 -40.203125 4.5 -41.640625 5.5 -42.640625 C 6.5 -43.640625 7.914062 -44.140625 9.75 -44.140625 C 11.625 -44.140625 13.050781 -43.640625 14.03125 -42.640625 C 15.007812 -41.640625 15.5 -40.203125 15.5 -38.328125 L 15.5 -9.5625 L 30.765625 -9.5625 C 32.347656 -9.5625 33.566406 -9.15625 34.421875 -8.34375 C 35.273438 -7.53125 35.703125 -6.351562 35.703125 -4.8125 C 35.703125 -3.269531 35.273438 -2.082031 34.421875 -1.25 C 33.566406 -0.414062 32.347656 0 30.765625 0 Z M 9.8125 0 "/></g></g></g><g fill="#03cfc9" fill-opacity="1"><g transform="translate(94.037806, 207.504274)"><g><path d="M 8.75 0.5625 C 7 0.5625 5.644531 0.0390625 4.6875 -1 C 3.726562 -2.039062 3.25 -3.539062 3.25 -5.5 L 3.25 -25.265625 C 3.25 -27.222656 3.726562 -28.722656 4.6875 -29.765625 C 5.644531 -30.804688 7 -31.328125 8.75 -31.328125 C 10.539062 -31.328125 11.925781 -30.804688 12.90625 -29.765625 C 13.882812 -28.722656 14.375 -27.222656 14.375 -25.265625 L 14.375 -5.5 C 14.375 -3.539062 13.894531 -2.039062 12.9375 -1 C 11.976562 0.0390625 10.582031 0.5625 8.75 0.5625 Z M 8.75 -35.765625 C 6.789062 -35.765625 5.28125 -36.222656 4.21875 -37.140625 C 3.15625 -38.054688 2.625 -39.390625 2.625 -41.140625 C 2.625 -42.847656 3.15625 -44.160156 4.21875 -45.078125 C 5.28125 -45.992188 6.789062 -46.453125 8.75 -46.453125 C 10.789062 -46.453125 12.332031 -45.992188 13.375 -45.078125 C 14.414062 -44.160156 14.9375 -42.847656 14.9375 -41.140625 C 14.9375 -39.390625 14.414062 -38.054688 13.375 -37.140625 C 12.332031 -36.222656 10.789062 -35.765625 8.75 -35.765625 Z M 8.75 -35.765625 "/></g></g></g><g fill="#03cfc9" fill-opacity="1"><g transform="translate(111.609086, 207.504274)"><g><path d="M 8.875 0.5625 C 7.125 0.5625 5.769531 0.0820312 4.8125 -0.875 C 3.851562 -1.832031 3.375 -3.226562 3.375 -5.0625 L 3.375 -25.765625 C 3.375 -27.554688 3.84375 -28.929688 4.78125 -29.890625 C 5.71875 -30.847656 7.0625 -31.328125 8.8125 -31.328125 C 10.5625 -31.328125 11.894531 -30.847656 12.8125 -29.890625 C 13.726562 -28.929688 14.1875 -27.554688 14.1875 -25.765625 L 14.1875 -22.328125 L 13.5 -25.390625 C 14.375 -27.222656 15.675781 -28.691406 17.40625 -29.796875 C 19.144531 -30.898438 21.203125 -31.453125 23.578125 -31.453125 C 25.828125 -31.453125 27.753906 -30.910156 29.359375 -29.828125 C 30.960938 -28.742188 32.117188 -27.097656 32.828125 -24.890625 L 31.953125 -24.890625 C 32.910156 -26.929688 34.347656 -28.535156 36.265625 -29.703125 C 38.179688 -30.867188 40.304688 -31.453125 42.640625 -31.453125 C 45.054688 -31.453125 47.035156 -30.984375 48.578125 -30.046875 C 50.128906 -29.109375 51.289062 -27.648438 52.0625 -25.671875 C 52.832031 -23.691406 53.21875 -21.203125 53.21875 -18.203125 L 53.21875 -5.0625 C 53.21875 -3.226562 52.726562 -1.832031 51.75 -0.875 C 50.769531 0.0820312 49.382812 0.5625 47.59375 0.5625 C 45.832031 0.5625 44.472656 0.0820312 43.515625 -0.875 C 42.554688 -1.832031 42.078125 -3.226562 42.078125 -5.0625 L 42.078125 -17.890625 C 42.078125 -19.679688 41.804688 -20.972656 41.265625 -21.765625 C 40.722656 -22.554688 39.828125 -22.953125 38.578125 -22.953125 C 37.035156 -22.953125 35.859375 -22.410156 35.046875 -21.328125 C 34.234375 -20.242188 33.828125 -18.703125 33.828125 -16.703125 L 33.828125 -5.0625 C 33.828125 -3.226562 33.347656 -1.832031 32.390625 -0.875 C 31.429688 0.0820312 30.054688 0.5625 28.265625 0.5625 C 26.472656 0.5625 25.097656 0.0820312 24.140625 -0.875 C 23.179688 -1.832031 22.703125 -3.226562 22.703125 -5.0625 L 22.703125 -17.890625 C 22.703125 -19.679688 22.429688 -20.972656 21.890625 -21.765625 C 21.347656 -22.554688 20.453125 -22.953125 19.203125 -22.953125 C 17.703125 -22.953125 16.539062 -22.410156 15.71875 -21.328125 C 14.90625 -20.242188 14.5 -18.703125 14.5 -16.703125 L 14.5 -5.0625 C 14.5 -1.3125 12.625 0.5625 8.875 0.5625 Z M 8.875 0.5625 "/></g></g></g><g fill="#03cfc9" fill-opacity="1"><g transform="translate(168.01225, 207.504274)"><g><path d="M 8.75 0.5625 C 7 0.5625 5.644531 0.0820312 4.6875 -0.875 C 3.726562 -1.832031 3.25 -3.226562 3.25 -5.0625 L 3.25 -25.765625 C 3.25 -27.554688 3.71875 -28.929688 4.65625 -29.890625 C 5.59375 -30.847656 6.9375 -31.328125 8.6875 -31.328125 C 10.4375 -31.328125 11.769531 -30.847656 12.6875 -29.890625 C 13.601562 -28.929688 14.0625 -27.554688 14.0625 -25.765625 L 14.0625 -22.828125 L 13.375 -25.390625 C 14.375 -27.347656 15.800781 -28.847656 17.65625 -29.890625 C 19.519531 -30.929688 21.640625 -31.453125 24.015625 -31.453125 C 26.472656 -31.453125 28.492188 -30.984375 30.078125 -30.046875 C 31.660156 -29.109375 32.847656 -27.648438 33.640625 -25.671875 C 34.429688 -23.691406 34.828125 -21.203125 34.828125 -18.203125 L 34.828125 -5.0625 C 34.828125 -3.226562 34.347656 -1.832031 33.390625 -0.875 C 32.429688 0.0820312 31.054688 0.5625 29.265625 0.5625 C 27.472656 0.5625 26.097656 0.0820312 25.140625 -0.875 C 24.179688 -1.832031 23.703125 -3.226562 23.703125 -5.0625 L 23.703125 -17.765625 C 23.703125 -19.640625 23.378906 -20.972656 22.734375 -21.765625 C 22.085938 -22.554688 21.140625 -22.953125 19.890625 -22.953125 C 18.222656 -22.953125 16.882812 -22.421875 15.875 -21.359375 C 14.875 -20.296875 14.375 -18.867188 14.375 -17.078125 L 14.375 -5.0625 C 14.375 -1.3125 12.5 0.5625 8.75 0.5625 Z M 8.75 0.5625 "/></g></g></g><g fill="#03cfc9" fill-opacity="1"><g transform="translate(205.906176, 207.504274)"><g><path d="M 9.75 0.5625 C 7.914062 0.5625 6.5 0.0507812 5.5 -0.96875 C 4.5 -1.988281 4 -3.414062 4 -5.25 L 4 -38.265625 C 4 -40.140625 4.507812 -41.578125 5.53125 -42.578125 C 6.550781 -43.578125 7.976562 -44.078125 9.8125 -44.078125 L 25.203125 -44.078125 C 30.203125 -44.078125 34.066406 -42.796875 36.796875 -40.234375 C 39.523438 -37.671875 40.890625 -34.140625 40.890625 -29.640625 C 40.890625 -25.140625 39.523438 -21.601562 36.796875 -19.03125 C 34.066406 -16.46875 30.203125 -15.1875 25.203125 -15.1875 L 15.5 -15.1875 L 15.5 -5.25 C 15.5 -3.414062 15.019531 -1.988281 14.0625 -0.96875 C 13.101562 0.0507812 11.664062 0.5625 9.75 0.5625 Z M 15.5 -24.015625 L 23.203125 -24.015625 C 25.367188 -24.015625 27.035156 -24.484375 28.203125 -25.421875 C 29.367188 -26.359375 29.953125 -27.765625 29.953125 -29.640625 C 29.953125 -31.554688 29.367188 -32.972656 28.203125 -33.890625 C 27.035156 -34.804688 25.367188 -35.265625 23.203125 -35.265625 L 15.5 -35.265625 Z M 15.5 -24.015625 "/></g></g></g><g fill="#03cfc9" fill-opacity="1"><g transform="translate(248.177284, 207.504274)"><g><path d="M 13.9375 0.6875 C 11.5625 0.6875 9.46875 0.25 7.65625 -0.625 C 5.84375 -1.5 4.425781 -2.695312 3.40625 -4.21875 C 2.382812 -5.738281 1.875 -7.476562 1.875 -9.4375 C 1.875 -11.6875 2.457031 -13.457031 3.625 -14.75 C 4.789062 -16.050781 6.664062 -16.984375 9.25 -17.546875 C 11.832031 -18.109375 15.273438 -18.390625 19.578125 -18.390625 L 23.015625 -18.390625 L 23.015625 -13.125 L 19.578125 -13.125 C 17.953125 -13.125 16.601562 -13.007812 15.53125 -12.78125 C 14.46875 -12.550781 13.6875 -12.195312 13.1875 -11.71875 C 12.6875 -11.238281 12.4375 -10.625 12.4375 -9.875 C 12.4375 -8.914062 12.78125 -8.125 13.46875 -7.5 C 14.15625 -6.875 15.148438 -6.5625 16.453125 -6.5625 C 17.492188 -6.5625 18.421875 -6.789062 19.234375 -7.25 C 20.046875 -7.707031 20.703125 -8.34375 21.203125 -9.15625 C 21.703125 -9.96875 21.953125 -10.914062 21.953125 -12 L 21.953125 -19.265625 C 21.953125 -20.765625 21.566406 -21.828125 20.796875 -22.453125 C 20.023438 -23.078125 18.703125 -23.390625 16.828125 -23.390625 C 15.816406 -23.390625 14.6875 -23.273438 13.4375 -23.046875 C 12.1875 -22.816406 10.789062 -22.410156 9.25 -21.828125 C 8.125 -21.410156 7.164062 -21.347656 6.375 -21.640625 C 5.582031 -21.929688 4.96875 -22.429688 4.53125 -23.140625 C 4.09375 -23.847656 3.882812 -24.617188 3.90625 -25.453125 C 3.925781 -26.285156 4.195312 -27.078125 4.71875 -27.828125 C 5.238281 -28.578125 6.039062 -29.160156 7.125 -29.578125 C 9.125 -30.328125 10.96875 -30.828125 12.65625 -31.078125 C 14.34375 -31.328125 15.898438 -31.453125 17.328125 -31.453125 C 20.742188 -31.453125 23.566406 -30.960938 25.796875 -29.984375 C 28.023438 -29.003906 29.691406 -27.503906 30.796875 -25.484375 C 31.898438 -23.460938 32.453125 -20.867188 32.453125 -17.703125 L 32.453125 -5.0625 C 32.453125 -3.226562 32.015625 -1.832031 31.140625 -0.875 C 30.265625 0.0820312 28.992188 0.5625 27.328125 0.5625 C 25.617188 0.5625 24.316406 0.0820312 23.421875 -0.875 C 22.523438 -1.832031 22.078125 -3.226562 22.078125 -5.0625 L 22.078125 -6.6875 L 22.453125 -5.8125 C 22.242188 -4.476562 21.765625 -3.332031 21.015625 -2.375 C 20.265625 -1.414062 19.285156 -0.664062 18.078125 -0.125 C 16.867188 0.414062 15.488281 0.6875 13.9375 0.6875 Z M 13.9375 0.6875 "/></g></g></g><g fill="#03cfc9" fill-opacity="1"><g transform="translate(283.695039, 207.504274)"><g><path d="M 12.1875 11.8125 C 10.894531 11.8125 9.851562 11.476562 9.0625 10.8125 C 8.269531 10.144531 7.78125 9.269531 7.59375 8.1875 C 7.40625 7.101562 7.582031 5.957031 8.125 4.75 L 12.3125 -4.3125 L 12.3125 0.1875 L 1.625 -24.265625 C 1.082031 -25.515625 0.90625 -26.679688 1.09375 -27.765625 C 1.28125 -28.847656 1.832031 -29.710938 2.75 -30.359375 C 3.664062 -31.003906 4.914062 -31.328125 6.5 -31.328125 C 7.832031 -31.328125 8.90625 -31.023438 9.71875 -30.421875 C 10.53125 -29.816406 11.269531 -28.640625 11.9375 -26.890625 L 18.203125 -10.625 L 16.078125 -10.625 L 22.703125 -26.953125 C 23.367188 -28.660156 24.128906 -29.816406 24.984375 -30.421875 C 25.835938 -31.023438 26.992188 -31.328125 28.453125 -31.328125 C 29.703125 -31.328125 30.703125 -31.003906 31.453125 -30.359375 C 32.203125 -29.710938 32.660156 -28.847656 32.828125 -27.765625 C 32.992188 -26.679688 32.804688 -25.515625 32.265625 -24.265625 L 18.078125 7.625 C 17.328125 9.289062 16.5 10.40625 15.59375 10.96875 C 14.695312 11.53125 13.5625 11.8125 12.1875 11.8125 Z M 12.1875 11.8125 "/></g></g></g></svg>
